<?xml version="1.0" encoding="UTF-8" standalone="no"?>
<!-- Created with Inkscape (http://www.inkscape.org/) -->

<svg
   xmlns:dc="http://purl.org/dc/elements/1.1/"
   xmlns:cc="http://creativecommons.org/ns#"
   xmlns:rdf="http://www.w3.org/1999/02/22-rdf-syntax-ns#"
   xmlns:svg="http://www.w3.org/2000/svg"
   xmlns="http://www.w3.org/2000/svg"
   xmlns:sodipodi="http://sodipodi.sourceforge.net/DTD/sodipodi-0.dtd"
   xmlns:inkscape="http://www.inkscape.org/namespaces/inkscape"
   width="374.81512mm"
   height="123.42428mm"
   viewBox="0 0 374.81512 123.42428"
   version="1.1"
   id="svg8"
   inkscape:version="0.92.4 5da689c313, 2019-01-14"
   sodipodi:docname="logo.svg">
  <defs
     id="defs2">
    <inkscape:path-effect
       effect="bspline"
       id="path-effect1360"
       is_visible="true"
       weight="33.333333"
       steps="2"
       helper_size="0"
       apply_no_weight="true"
       apply_with_weight="true"
       only_selected="false" />
    <inkscape:path-effect
       effect="bspline"
       id="path-effect1034"
       is_visible="true"
       weight="33.333333"
       steps="2"
       helper_size="0"
       apply_no_weight="true"
       apply_with_weight="true"
       only_selected="false" />
    <inkscape:path-effect
       effect="bspline"
       id="path-effect1030"
       is_visible="true"
       weight="33.333333"
       steps="2"
       helper_size="0"
       apply_no_weight="true"
       apply_with_weight="true"
       only_selected="false" />
    <inkscape:path-effect
       effect="bspline"
       id="path-effect1026"
       is_visible="true"
       weight="33.333333"
       steps="2"
       helper_size="0"
       apply_no_weight="true"
       apply_with_weight="true"
       only_selected="false" />
    <inkscape:path-effect
       effect="bspline"
       id="path-effect1022"
       is_visible="true"
       weight="33.333333"
       steps="2"
       helper_size="0"
       apply_no_weight="true"
       apply_with_weight="true"
       only_selected="false" />
    <inkscape:path-effect
       effect="bspline"
       id="path-effect1018"
       is_visible="true"
       weight="33.333333"
       steps="2"
       helper_size="0"
       apply_no_weight="true"
       apply_with_weight="true"
       only_selected="false" />
    <inkscape:path-effect
       effect="bspline"
       id="path-effect990"
       is_visible="true"
       weight="33.333333"
       steps="2"
       helper_size="0"
       apply_no_weight="true"
       apply_with_weight="true"
       only_selected="false" />
    <inkscape:path-effect
       effect="bspline"
       id="path-effect27"
       is_visible="true"
       weight="33.333333"
       steps="2"
       helper_size="0"
       apply_no_weight="true"
       apply_with_weight="true"
       only_selected="false" />
    <inkscape:path-effect
       effect="bspline"
       id="path-effect23"
       is_visible="true"
       weight="33.333333"
       steps="2"
       helper_size="0"
       apply_no_weight="true"
       apply_with_weight="true"
       only_selected="false" />
  </defs>
  <sodipodi:namedview
     id="base"
     pagecolor="#ffffff"
     bordercolor="#666666"
     borderopacity="1.0"
     inkscape:pageopacity="0.0"
     inkscape:pageshadow="2"
     inkscape:zoom="0.35"
     inkscape:cx="747.89836"
     inkscape:cy="423.87807"
     inkscape:document-units="mm"
     inkscape:current-layer="layer1"
     showgrid="false"
     inkscape:window-width="1366"
     inkscape:window-height="707"
     inkscape:window-x="0"
     inkscape:window-y="0"
     inkscape:window-maximized="1"
     fit-margin-top="0"
     fit-margin-left="0"
     fit-margin-right="0"
     fit-margin-bottom="0" />
  <metadata
     id="metadata5">
    <rdf:RDF>
      <cc:Work
         rdf:about="">
        <dc:format>image/svg+xml</dc:format>
        <dc:type
           rdf:resource="http://purl.org/dc/dcmitype/StillImage" />
        <dc:title></dc:title>
      </cc:Work>
    </rdf:RDF>
  </metadata>
  <g
     inkscape:label="Layer 1"
     inkscape:groupmode="layer"
     id="layer1"
     transform="translate(146.36657,-46.395946)">
    <g
       id="g1440">
      <path
         id="path21"
         d="m -19.555175,46.396134 c 0.32975,-0.0021 0.591357,0.0136 0.843359,0.03721 1.008002,0.09448 1.858132,0.314701 2.976562,0.740008 1.118429,0.425307 2.503903,1.054994 3.480406,1.464508 0.976506,0.409517 1.543606,0.598556 10.399366,1.197346 8.8557602,0.598789 25.98131,1.606372 43.11623,2.61431 5.606647,0.063 11.213091,0.125715 17.759123,-0.529166 6.546033,-0.654884 14.081366,-2.036882 18.181836,-2.759006 4.100469,-0.722125 4.791014,-0.788689 10.450008,0.135908 5.658994,0.924597 16.279095,2.839313 21.969715,3.863848 5.69063,1.024535 6.44786,1.157941 7.38353,1.62574 0.93567,0.467799 2.04894,1.269318 7.12618,3.124875 5.07724,1.855557 14.03273,4.737166 18.94406,6.683827 4.91134,1.946664 5.77948,2.997687 9.81181,8.054806 4.03233,5.057121 11.24646,14.141968 15.63419,20.066476 4.38772,5.924507 5.94698,8.685906 7.86257,13.163016 1.91559,4.47711 4.18675,10.66836 5.54539,14.54382 1.35865,3.87545 1.80426,5.43465 3.38584,8.84287 1.58158,3.40821 4.29818,8.66341 5.99085,11.60342 1.69267,2.94002 2.36081,3.56356 3.27422,4.38785 0.91341,0.82429 2.07119,1.84808 3.54139,2.40502 1.4702,0.55694 3.2517,0.64631 5.72419,0.71314 2.4725,0.0668 5.63445,0.11114 7.54993,0.0889 1.91549,-0.0223 2.5838,-0.11128 3.36362,-1.00253 0.77982,-0.89124 1.6703,-2.58356 2.29392,-4.254 0.62361,-1.67043 0.98016,-3.31827 1.26969,-4.855 0.28952,-1.53673 0.51205,-2.96272 0.35605,-4.2323 -0.156,-1.26958 -0.69033,-2.3832 -1.08727,-3.22099 -0.39695,-0.8378 -0.67209,-1.43388 -1.02837,-2.0128 -0.35627,-0.57892 -0.80203,-1.15819 -1.06918,-1.87069 -0.26715,-0.71249 -0.35658,-1.55952 -0.35657,-2.58382 1e-5,-1.0243 0.0892,-2.22702 0.40101,-3.29592 0.31177,-1.0689 0.84656,-2.00475 1.26969,-2.60604 0.42313,-0.6013 0.73488,-0.86865 1.64796,-0.86868 0.91309,-3e-5 2.42758,0.26715 3.38533,0.51211 0.95774,0.24496 1.35857,0.46775 2.0717,0.9803 0.71313,0.51256 1.73667,1.31398 2.62775,2.62827 0.89108,1.31428 1.64847,3.13976 1.84898,4.87722 0.20051,1.73746 -0.15595,3.38548 -0.42323,4.63279 -0.26728,1.24731 -0.44551,2.09356 -0.69608,4.19457 -0.25056,2.10102 -0.57333,5.45489 -0.971,7.85689 -0.39766,2.402 -0.87022,3.85085 -1.39785,5.5361 -0.52762,1.68524 -1.11016,3.60681 -1.66139,5.10305 -0.55124,1.49622 -1.07087,2.56673 -1.62213,3.45663 -0.55126,0.8899 -1.13367,1.59858 -1.76371,2.11047 -0.63005,0.51189 -1.30719,0.82679 -2.11822,1.0945 -0.81103,0.26771 -1.75648,0.48812 -3.69332,0.9369 -1.93683,0.44877 -4.86642,1.12661 -7.21299,1.52032 -2.34657,0.3937 -4.11066,0.50373 -5.58312,0.51159 -1.47247,0.008 -2.65398,-0.0867 -3.82716,-0.39377 -1.17318,-0.3071 -2.33877,-0.82688 -4.07624,-1.8402 -1.73746,-1.01332 -4.04805,-2.52087 -5.29218,-3.36362 -1.24412,-0.84275 -1.42234,-1.02091 -1.82263,-0.62063 -0.40029,0.40027 -1.0251,1.38131 -3.25251,3.5419 -2.22741,2.16059 -6.05775,5.5013 -8.12922,7.14944 -2.07148,1.64813 -2.38344,1.60344 -3.34037,1.64796 -0.95693,0.0445 -2.56234,0.17874 -5.01209,-0.0217 -2.44975,-0.20045 -5.74659,-0.73511 -8.61963,-1.29191 -2.87304,-0.5568 -5.32311,-1.13596 -6.70398,-1.51464 -1.38088,-0.37867 -1.69276,-0.55709 -1.44798,-1.66966 0.24478,-1.11257 1.04749,-3.16345 2.18333,-5.30149 1.13584,-2.13804 2.60613,-4.36564 3.47472,-5.60172 0.8686,-1.23608 1.13585,-1.48084 2.69493,-2.23811 1.55908,-0.75727 4.40964,-2.02685 5.86579,-2.82928 1.45615,-0.80243 1.51758,-1.13764 1.10743,-2.31252 -0.41016,-1.17489 -1.29299,-3.19215 -2.25361,-5.11339 -0.96063,-1.92123 -1.99996,-3.74805 -2.75591,-4.94491 -0.75594,-1.19687 -1.22862,-1.76438 -1.449,-2.06344 -0.22039,-0.29907 -0.1889,-0.33047 -7.00836,-0.31471 -6.81946,0.0158 -20.48902,0.0786 -34.15916,0.14159 l -5.4808,-2.07842 -4.72477,14.36294 -1.51206,8.31526 -2.07894,3.96875 -9.827307,0.75602 -11.150224,-0.37775 -4.53564,-0.5669 -6.236829,-2.64583 -1.700671,-2.64584 3.212724,-6.99285 3.401859,-4.34651 12.662276,-2.26808 h 1.700672 l 2.834969,-5.85855 c 0.503968,-1.7009 1.007809,-3.40203 1.102258,-4.94544 0.09445,-1.5434 -0.220371,-2.9295 -5.227588,-7.11791 -5.007217,-4.18841 -14.710557,-11.18204 -24.411946,-18.1746 -1.385913,-0.12599 -2.771892,-0.25188 -5.952608,0.59841 -3.180716,0.8503 -8.158681,2.67739 -11.770858,3.99666 -3.612176,1.31927 -5.899988,2.1456 -8.577254,2.77554 -2.677266,0.62993 -5.764662,1.07102 -8.504907,1.41748 -2.740245,0.34647 -5.133837,0.59811 -7.370093,0.85008 -2.236256,0.25198 -4.315055,0.50404 -6.393923,0.75603 l -5.859077,0.94516 c 0,0 2.457122,2.45649 3.055628,2.8975 0.598509,0.44101 1.795143,1.32258 3.27577,2.42517 1.480626,1.1026 3.244111,2.42533 5.291666,3.43339 2.047558,1.00805 4.377661,1.70123 5.984132,2.39416 1.60647,0.69294 2.488617,1.38577 3.09645,2.01022 0.607835,0.62445 1.030065,1.32801 1.408184,2.33629 0.378119,1.00828 0.755909,2.39378 0.566891,3.52795 -0.189018,1.13417 -0.944814,2.01585 -3.181202,5.98464 -2.236388,3.9688 -5.952963,11.02426 -7.9375,14.55209 -1.984536,3.52783 -2.362509,3.52743 -5.226555,3.52743 -2.864043,0 -8.2862949,2.7e-4 -11.5620826,-0.34623 -3.2757903,-0.34656 -4.4096331,-1.03943 -4.976442,-1.85829 -0.56680893,-0.81885 -0.56710262,-1.89039 -0.25217966,-3.52794 0.3149203,-1.63756 0.94511546,-3.90592 1.51205136,-5.38624 0.566936,-1.48031 1.0708984,-2.17349 2.3621312,-2.7404 1.2912302,-0.56691 3.3703577,-1.00767 4.9139104,-1.73219 1.5435523,-0.72453 2.5513373,-1.73253 3.3388143,-2.89802 0.787477,-1.16549 1.354608,-2.48814 1.56528,-3.25871 0.210669,-0.77057 0.103926,-0.93066 -0.147796,-1.18236 -0.251719,-0.2517 -0.630489,-0.56732 -8.8139324,-4.24987 -8.1834407,-3.68255 -24.1966586,-10.74325 -32.2600446,-14.4601 -8.063386,-3.71685 -8.189135,-4.09496 -9.133292,-3.52847 -0.944158,0.5665 -2.709355,2.07981 -3.969269,3.18224 -1.259911,1.10242 -2.015903,1.79561 -2.645833,3.43338 -0.629928,1.63777 -1.134023,4.22035 -1.480529,5.60638 -0.346504,1.38602 -0.535276,1.57507 -11.717115,8.18968 -11.181837,6.61461 -33.356804,19.65474 -44.822069,26.42681 -11.46526,6.77207 -12.22086,7.27595 -16.44137,7.77988 -4.22052,0.50394 -11.90675,1.00783 -17.13539,1.16531 -5.22864,0.15747 -8.00088,-0.0313 -9.67021,-0.53537 -1.66933,-0.50407 -2.2363,-1.32304 -2.3611,-2.55695 -0.1248,-1.23391 0.18834,-2.86055 1.24282,-5.19503 1.05448,-2.33448 2.91385,-5.47702 3.98477,-7.20938 1.07092,-1.73236 1.3861,-2.11066 5.07101,-2.92954 3.68491,-0.81887 10.74103,-2.07883 21.82864,-8.09511 11.08761,-6.01629 26.206348,-16.78818 33.765896,-22.17436 l 7.55923,-5.38623 c 0.503968,-1.10243 1.008224,-2.2047 1.638141,-3.95273 0.629918,-1.74803 1.385885,-4.14243 1.826763,-5.37073 0.440878,-1.22831 0.567137,-1.29141 -1.545124,-1.22835 -2.112264,0.0631 -6.455471,0.25215 -9.038209,0.55138 -2.582738,0.29925 -3.402013,0.70871 -4.787821,1.25988 -1.38581,0.55117 -3.338581,1.24436 -6.173268,2.17351 -2.834685,0.92914 -6.552002,2.09444 -9.040278,3.05511 -2.48827,0.96067 -3.74816,1.71647 -5.03948,2.96054 -1.29132,1.24408 -2.61461,2.97683 -3.78013,4.04781 -1.16552,1.07099 -2.17306,1.48049 -3.22823,1.7167 -1.05517,0.23621 -2.15786,0.29937 -3.19722,0.15761 -1.03936,-0.14176 -2.01581,-0.48865 -2.96054,-1.37046 -0.94473,-0.88181 -1.85872,-2.29975 -2.52543,-3.10265 -0.66671,-0.8029 -1.08685,-0.9915 -1.80868,-1.08572 -0.72182,-0.0942 -1.74702,-0.0939 -2.74918,-0.38344 -1.00216,-0.28956 -1.9823,-0.86907 -2.98432,-2.40554 -1.00201,-1.53647 -2.02697,-4.03152 -2.40553,-5.76864 -0.37856,-1.73712 -0.11121,-2.71728 0.12195,-3.4184 0.23317,-0.70112 0.44448,-1.14946 1.79679,-3.520708 1.35232,-2.371251 3.86124,-6.694347 5.15266,-8.930722 1.29142,-2.236372 1.3701,-2.394119 1.29139,-3.527433 -0.0787,-1.133311 -0.31529,-3.245006 -0.37827,-4.36304 -0.063,-1.118034 0.0473,-1.243777 2.50373,-3.519164 2.45647,-2.275391 7.26078,-6.701812 10.13891,-9.191173 2.87813,-2.489359 3.87795,-3.069889 4.7284,-3.479374 0.85044,-0.409482 1.575,-0.661424 2.26807,-1.02371 0.69308,-0.362283 1.35409,-0.834893 2.06293,-1.025776 0.70883,-0.190884 1.5275,-0.09236 2.283579,0.09664 0.756076,0.188995 1.48014,0.472059 2.315104,0.519348 0.834962,0.04729 1.779776,-0.141211 2.598806,-0.330213 0.819034,-0.189005 1.511491,-0.378391 4.740797,-1.544092 3.229305,-1.165699 8.9921,-3.30698 16.111677,-5.445147 7.11958,-2.138166 15.653279,-4.287358 24.37784,-6.148461 8.724562,-1.861103 17.608042,-3.430635 22.647714,-4.233849 3.779753,-0.602412 5.380382,-0.770562 6.369638,-0.777214 z m 149.426015,30.27929 c -0.60794,0.01278 -0.81105,0.350022 -0.79013,1.143082 0.0279,1.057409 0.46894,2.915708 0.48472,7.703404 0.0158,4.787699 -0.39438,12.51104 -0.45733,16.53956 -0.063,4.02852 0.2209,4.37555 0.74052,4.80074 0.51963,0.42519 1.27555,0.92916 4.44107,2.3151 3.16553,1.38594 8.74183,3.65417 12.45816,4.94544 3.71632,1.29133 5.57448,1.60589 8.4093,1.38544 2.83482,-0.22045 6.6462,-0.97593 8.55194,-1.35392 -1.24407,-5.73266 -4.39393,-11.0875 -7.73286,-15.68638 -3.33894,-4.598881 -6.86639,-8.441367 -10.25261,-11.638565 -3.38621,-3.197199 -6.63006,-5.747824 -9.26041,-7.401616 -2.63036,-1.653791 -4.64558,-2.409888 -5.84254,-2.661854 -0.29924,-0.06299 -0.54718,-0.0947 -0.74983,-0.09043 z"
         style="fill:#8fbc8f;fill-opacity:1;stroke:none;stroke-width:0.26458332px;stroke-linecap:butt;stroke-linejoin:miter;stroke-opacity:1"
         inkscape:connector-curvature="0" />
      <path
         inkscape:connector-curvature="0"
         id="path835"
         d="m 97.012088,143.73065 -5.291666,8.31548 -13.607143,6.99274 5.291667,-12.66238 z"
         style="fill:#6444ec;fill-opacity:1;stroke:none;stroke-width:0.26458332px;stroke-linecap:butt;stroke-linejoin:miter;stroke-opacity:1" />
      <path
         inkscape:connector-curvature="0"
         id="path837"
         d="m 83.404946,146.37649 -6.614584,-3.96865 -3.401859,4.34651 -3.212724,6.99285 1.700671,2.64583 6.236829,2.64584 z"
         style="fill:#3c3871;fill-opacity:1;stroke:none;stroke-width:0.26458332px;stroke-linecap:butt;stroke-linejoin:miter;stroke-opacity:1" />
      <path
         inkscape:connector-curvature="0"
         id="path839"
         d="m 97.012088,143.73065 -7.559449,-3.59089 -12.662277,2.26808 6.614584,3.96865 z"
         style="fill:#3cb371;fill-opacity:1;stroke:none;stroke-width:0.26458332px;stroke-linecap:butt;stroke-linejoin:miter;stroke-opacity:1" />
      <path
         inkscape:connector-curvature="0"
         id="path841"
         d="M 91.720421,152.04613 Z"
         style="fill:#cccccc;stroke:none;stroke-width:0.26458332px;stroke-linecap:butt;stroke-linejoin:miter;stroke-opacity:1" />
      <path
         inkscape:connector-curvature="0"
         id="path843"
         d="m 103.62645,159.22749 -11.906029,-7.18136 -13.607142,6.99274 15.685864,0.94464 z"
         style="fill:#3c2171;fill-opacity:1;stroke:none;stroke-width:0.26458332px;stroke-linecap:butt;stroke-linejoin:miter;stroke-opacity:1" />
      <path
         inkscape:connector-curvature="0"
         id="path845"
         d="m 84.727862,63.599702 16.252978,53.483628 -3.023811,1.7009 -4.346726,-1.51191 -5.291667,-6.04762 -5.480655,-10.20536 0.566965,-39.687495 z"
         style="fill:#87ceeb;fill-opacity:1;stroke:none;stroke-width:0.26458332px;stroke-linecap:butt;stroke-linejoin:miter;stroke-opacity:1" />
      <path
         inkscape:connector-curvature="0"
         id="path847"
         d="m 123.28143,119.54018 -22.30059,-2.45685 -3.023811,1.7009 v 0 l -4.346726,-1.51191 24.152207,16.09191 1.06908,-0.53454 z"
         style="fill:#d2691e;fill-opacity:1;stroke:none;stroke-width:0.26458332px;stroke-linecap:butt;stroke-linejoin:miter;stroke-opacity:1" />
      <path
         inkscape:connector-curvature="0"
         id="path849"
         d="m 121.10338,59.263756 0.26727,37.016827 -11.49259,-16.169807 z"
         style="fill:#3cb371;fill-opacity:1;stroke:none;stroke-width:0.26458332px;stroke-linecap:butt;stroke-linejoin:miter;stroke-opacity:1" />
      <path
         inkscape:connector-curvature="0"
         id="path851"
         d="m 121.37065,96.280583 1.91078,23.259597 -19.65476,-2.26786 6.25139,-37.161544 z"
         style="fill:#000000;fill-opacity:0;stroke:none;stroke-width:0.26458332px;stroke-linecap:butt;stroke-linejoin:miter;stroke-opacity:1" />
      <path
         inkscape:connector-curvature="0"
         id="path853"
         d="m 109.87806,80.110776 -26.473114,-18.778931 1.322916,2.267857 16.252978,53.483628 2.64583,0.18899 z"
         style="fill:#ffa500;fill-opacity:1;stroke:none;stroke-width:0.26458332px;stroke-linecap:butt;stroke-linejoin:miter;stroke-opacity:1" />
      <path
         inkscape:connector-curvature="0"
         id="path855"
         d="m 121.10338,59.263756 v 0 l -5.28698,-2.278637 -34.8683,-5.291667 2.456846,9.638393 26.473114,18.778931 z"
         style="fill:#adff2f;fill-opacity:1;stroke:none;stroke-width:0.26458332px;stroke-linecap:butt;stroke-linejoin:miter;stroke-opacity:1" />
      <path
         inkscape:connector-curvature="0"
         id="path857"
         d="m 80.9481,51.693452 0.733025,-3.12048 34.745035,5.612662 4.67722,5.078122 v 0 l -5.28698,-2.278637 z"
         style="fill:#3cb371;fill-opacity:1;stroke:none;stroke-width:0.26458332px;stroke-linecap:butt;stroke-linejoin:miter;stroke-opacity:1" />
      <path
         inkscape:connector-curvature="0"
         id="path859"
         d="m 129.52237,81.84803 -8.15172,14.432553 -0.26727,-37.016827 2.53906,4.142676 5.09603,14.154764 z"
         style="fill:#ff0000;fill-opacity:1;stroke:none;stroke-width:0.26458332px;stroke-linecap:butt;stroke-linejoin:miter;stroke-opacity:1" />
      <path
         inkscape:connector-curvature="0"
         id="path861"
         d="m 123.28143,119.54018 6.37457,-12.9029 -0.13363,-24.78925 -8.15172,14.432553 z"
         style="fill:#87ceeb;fill-opacity:1;stroke:none;stroke-width:0.26458332px;stroke-linecap:butt;stroke-linejoin:miter;stroke-opacity:1" />
      <path
         inkscape:connector-curvature="0"
         id="path863"
         d="m 168.67735,123.14117 -6.88219,11.02487 -42.96357,-1.33635 4.44984,-13.28951 z"
         style="fill:#ffff50;fill-opacity:1;stroke:none;stroke-width:0.26458332px;stroke-linecap:butt;stroke-linejoin:miter;stroke-opacity:1" />
      <path
         inkscape:connector-curvature="0"
         id="path865"
         d="m 168.67735,123.14117 -1.1727,-1.71111 -18.89881,-6.4256 -0.96857,-0.44884 -14.33947,-5.71689 -3.6418,-2.20145 -6.37457,12.9029 z"
         style="fill:#4682b4;fill-opacity:1;stroke:none;stroke-width:0.26458332px;stroke-linecap:butt;stroke-linejoin:miter;stroke-opacity:1" />
      <path
         inkscape:connector-curvature="0"
         id="path867"
         d="m 168.67735,123.14117 0.26727,-9.15398 -5.23553,0.16708 -9.86519,1.43654 -1.60362,-0.20046 -3.63444,-0.38589 18.89881,6.4256 1.1727,1.71111"
         style="fill:#ff4f50;fill-opacity:1;stroke:none;stroke-width:0.26458332px;stroke-linecap:butt;stroke-linejoin:miter;stroke-opacity:1" />
      <path
         inkscape:connector-curvature="0"
         id="path869"
         d="m 161.79516,134.16604 9.82216,17.57297 11.09169,1.87089 -14.03166,-30.46873 -6.88219,11.02487"
         style="fill:#375232;fill-opacity:1;stroke:none;stroke-width:0.26458332px;stroke-linecap:butt;stroke-linejoin:miter;stroke-opacity:1" />
      <path
         inkscape:connector-curvature="0"
         id="path873"
         d="m 182.70901,153.6099 2.3386,5.07812 1.33635,-1.46999 0.0668,-3.27405 -17.50615,-39.95679 -0.26728,9.15398 z"
         style="fill:#468241;fill-opacity:1;stroke:none;stroke-width:0.26458332px;stroke-linecap:butt;stroke-linejoin:miter;stroke-opacity:1" />
      <path
         inkscape:connector-curvature="0"
         id="path875"
         d="M 82.837981,101.01934 56.958694,97.082392 61.502276,69.553631 63.373162,67.950013 Z"
         style="fill:#ba2555;fill-opacity:1;stroke:none;stroke-width:0.26458332px;stroke-linecap:butt;stroke-linejoin:miter;stroke-opacity:1" />
      <path
         inkscape:connector-curvature="0"
         id="path877"
         d="M 80.9481,51.693452 63.373162,67.950013 82.837981,101.01934 83.404946,61.331845 Z"
         style="fill:#9acd32;fill-opacity:1;stroke:none;stroke-width:0.26458332px;stroke-linecap:butt;stroke-linejoin:miter;stroke-opacity:1" />
      <path
         inkscape:connector-curvature="0"
         id="path879"
         d="M 63.373162,67.950013 57.891553,53.677827 80.9481,51.693452 Z"
         style="fill:#404fd0;fill-opacity:1;stroke:none;stroke-width:0.26458332px;stroke-linecap:butt;stroke-linejoin:miter;stroke-opacity:1" />
      <path
         inkscape:connector-curvature="0"
         id="path881"
         d="M 56.958694,97.082392 11.494977,91.191963 61.502276,69.553631 Z"
         style="fill:#8fbc8f;fill-opacity:1;stroke:none;stroke-width:0.26458332px;stroke-linecap:butt;stroke-linejoin:miter;stroke-opacity:1" />
      <path
         inkscape:connector-curvature="0"
         id="path883"
         d="M 63.373162,67.950013 57.891553,53.677827 32.567148,65.206101 11.494977,91.191963 61.502276,69.553631 Z"
         style="fill:#ff6347;fill-opacity:1;stroke:none;stroke-width:0.26458332px;stroke-linecap:butt;stroke-linejoin:miter;stroke-opacity:1" />
      <path
         sodipodi:nodetypes="cccc"
         inkscape:connector-curvature="0"
         id="path904"
         d="M 13.290363,89.018599 9.510602,71.915178 32.567148,65.206101 Z"
         style="fill:#3cb323;fill-opacity:1;stroke:none;stroke-width:0.26458332px;stroke-linecap:butt;stroke-linejoin:miter;stroke-opacity:1" />
      <path
         inkscape:connector-curvature="0"
         id="path906"
         d="M 9.510602,71.915178 -10.25959,49.508417 32.567148,65.206101 Z"
         style="fill:#87ceeb;fill-opacity:1;stroke:none;stroke-width:0.26458332px;stroke-linecap:butt;stroke-linejoin:miter;stroke-opacity:1" />
      <path
         inkscape:connector-curvature="0"
         id="path908"
         d="M 32.567148,65.206101 44.94587,52.354911 57.891553,53.677827 Z"
         style="fill:#ff0000;fill-opacity:1;stroke:none;stroke-width:0.26458332px;stroke-linecap:butt;stroke-linejoin:miter;stroke-opacity:1" />
      <path
         inkscape:connector-curvature="0"
         id="path910"
         d="m 9.510602,71.915178 c -4.942167,0.905258 -9.884068,1.810784 -14.825707,2.716575 -5.256342,0.222451 -10.512867,0.445182 -15.768906,0.668173 L -10.25959,49.508417 9.510602,71.915178"
         style="fill:#4b0082;fill-opacity:1;stroke:none;stroke-width:0.26458332px;stroke-linecap:butt;stroke-linejoin:miter;stroke-opacity:1" />
      <path
         inkscape:connector-curvature="0"
         id="path912"
         d="m -21.084011,75.299926 -2.53906,7.550364 35.118048,8.341673 1.795386,-2.173365 -3.779761,-17.10342 -14.825707,2.716575 z"
         style="fill:#d2691e;fill-opacity:1;stroke:none;stroke-width:0.26458332px;stroke-linecap:butt;stroke-linejoin:miter;stroke-opacity:1" />
      <path
         sodipodi:nodetypes="cccccccc"
         inkscape:connector-curvature="0"
         id="path926"
         d="m -23.623071,82.850288 -1.73725,-0.334084 4.34313,-35.880934 1.46202,-0.239136 2.212936,0.305954 5.011304,1.870884 2.071343,0.935445 c -4.89276,11.245437 -10.165073,22.60474 -13.363483,33.341871 z"
         style="fill:#4682b4;fill-opacity:1;stroke:none;stroke-width:0.26458332px;stroke-linecap:butt;stroke-linejoin:miter;stroke-opacity:1" />
      <path
         inkscape:connector-curvature="0"
         id="path928"
         d="m -25.360321,82.516204 -26.19241,-7.750818 30.53554,-28.130116 z"
         style="fill:#3cb371;fill-opacity:1;stroke:none;stroke-width:0.26458332px;stroke-linecap:butt;stroke-linejoin:miter;stroke-opacity:1" />
      <path
         inkscape:connector-curvature="0"
         id="path930"
         d="m -51.552731,74.765386 -6.01357,-8.285356 8.8199,-15.100725 27.72921,-4.744035 z"
         style="fill:#d2691e;fill-opacity:1;stroke:none;stroke-width:0.26458332px;stroke-linecap:butt;stroke-linejoin:miter;stroke-opacity:1" />
      <path
         inkscape:connector-curvature="0"
         id="path932"
         d="m -57.566301,66.48003 -7.57339,25.845863 -27.1198,-6.236608 -1.13393,-3.590774 44.64702,-31.119206 -8.8199,15.100725"
         style="fill:#40e0d0;fill-opacity:1;stroke:none;stroke-width:0.26458332px;stroke-linecap:butt;stroke-linejoin:miter;stroke-opacity:1" />
      <path
         inkscape:connector-curvature="0"
         id="path934"
         d="m -93.393421,82.498511 -0.56696,-4.913691 3.2128,-6.992559 18.42634,-6.331101 7.65402,-1.606399 z"
         style="fill:#ff0000;fill-opacity:1;stroke:none;stroke-width:0.26458332px;stroke-linecap:butt;stroke-linejoin:miter;stroke-opacity:1" />
      <path
         inkscape:connector-curvature="0"
         id="path936"
         d="m -65.139691,92.325893 -2.04831,6.226481 -13.22984,-0.668173 -9.6217,0.400905 -0.66818,-7.349914 -1.55177,-4.845907 z"
         style="fill:#8fbc8f;fill-opacity:1;stroke:none;stroke-width:0.26458332px;stroke-linecap:butt;stroke-linejoin:miter;stroke-opacity:1" />
      <path
         inkscape:connector-curvature="0"
         id="path938"
         d="m -51.552731,74.765386 -8.15172,40.758604 -10.69078,1.06908 6.68174,-18.174331 z"
         style="fill:#6444ec;fill-opacity:1;stroke:none;stroke-width:0.26458332px;stroke-linecap:butt;stroke-linejoin:miter;stroke-opacity:1" />
      <path
         inkscape:connector-curvature="0"
         id="path940"
         d="m -25.360321,82.516204 -34.34413,33.007786 8.15172,-40.758604 z"
         style="fill:#deb887;fill-opacity:1;stroke:none;stroke-width:0.26458332px;stroke-linecap:butt;stroke-linejoin:miter;stroke-opacity:1" />
      <path
         inkscape:connector-curvature="0"
         id="path942"
         d="m -70.395231,116.59307 -2.49312,-1.58872 5.70035,-16.451978 9.6217,-32.072342 6.01357,8.285356 -12.16076,23.653353 z"
         style="fill:#adff2f;fill-opacity:1;stroke:none;stroke-width:0.26458332px;stroke-linecap:butt;stroke-linejoin:miter;stroke-opacity:1" />
      <path
         inkscape:connector-curvature="0"
         id="path944"
         d="m -59.704451,115.52399 -26.7909,33.12035 -31.749999,2.64584 39.876489,-26.45834 7.97363,-8.23877 z"
         style="fill:#4682b4;fill-opacity:1;stroke:none;stroke-width:0.26458332px;stroke-linecap:butt;stroke-linejoin:miter;stroke-opacity:1" />
      <path
         inkscape:connector-curvature="0"
         id="path946"
         d="m -118.24535,151.29018 -19.27678,4.7247 -2.83483,-3.68527 1.41742,-1.03943 12.5677,-2.92932 7.84301,-3.49628 z"
         style="fill:#ffa500;fill-opacity:1;stroke:none;stroke-width:0.26458332px;stroke-linecap:butt;stroke-linejoin:miter;stroke-opacity:1" />
      <path
         inkscape:connector-curvature="0"
         id="path948"
         d="m -86.495351,148.64434 1.79539,1.98438 -26.174849,15.40253 -7.37054,-14.74107 31.749999,-2.64584"
         style="fill:#87ceeb;fill-opacity:1;stroke:none;stroke-width:0.26458332px;stroke-linecap:butt;stroke-linejoin:miter;stroke-opacity:1" />
      <path
         inkscape:connector-curvature="0"
         id="path950"
         d="m -137.52213,156.01488 -8.40998,11.1503 0.37798,1.03943 6.61459,0.94494 3.1183,0.0945 -1.70089,-13.22916"
         style="fill:#9acd32;fill-opacity:1;stroke:none;stroke-width:0.26458332px;stroke-linecap:butt;stroke-linejoin:miter;stroke-opacity:1" />
      <path
         inkscape:connector-curvature="0"
         id="path952"
         d="m -135.82124,169.24405 2.17336,0.0945 19.74926,-1.79539 3.02381,-1.5119 -7.37054,-14.74107 -19.27678,4.7247 z"
         style="fill:#ff6347;fill-opacity:1;stroke:none;stroke-width:0.26458332px;stroke-linecap:butt;stroke-linejoin:miter;stroke-opacity:1" />
      <path
         inkscape:connector-curvature="0"
         id="path954"
         d="m -47.469311,128.6116 -12.23514,-13.08761 -26.7909,33.12035 1.79539,1.98438 z"
         style="fill:#3cb371;fill-opacity:1;stroke:none;stroke-width:0.26458332px;stroke-linecap:butt;stroke-linejoin:miter;stroke-opacity:1" />
      <path
         inkscape:connector-curvature="0"
         id="path956"
         d="m -122.40309,98.090028 6.23661,10.961312 -11.71726,4.06324 -2.92932,-6.89806 z"
         style="fill:#3cb371;fill-opacity:1;stroke:none;stroke-width:0.26458332px;stroke-linecap:butt;stroke-linejoin:miter;stroke-opacity:1" />
      <path
         inkscape:connector-curvature="0"
         id="path958"
         d="m -122.40309,98.090026 1.7009,-7.559522 8.97693,17.859376 -4.44122,0.66146 z"
         style="fill:#9acd32;fill-opacity:1;stroke:none;stroke-width:0.26458332px;stroke-linecap:butt;stroke-linejoin:miter;stroke-opacity:1" />
      <path
         inkscape:connector-curvature="0"
         id="path960"
         d="m -90.039541,98.285106 -5.71623,-9.172012 -1.79538,-9.07143 0.37797,-2.456844 h 3.2128 l 0.56696,4.913691 1.13393,3.590774 1.55177,4.845905 z"
         style="fill:#ffe4b5;fill-opacity:1;stroke:none;stroke-width:0.26458332px;stroke-linecap:butt;stroke-linejoin:miter;stroke-opacity:1" />
      <path
         inkscape:connector-curvature="0"
         id="path962"
         d="m -111.72526,108.38988 8.97693,-1.13393 8.409969,-3.1183 -1.41741,-15.024558 z"
         style="fill:#4b0082;fill-opacity:1;stroke:none;stroke-width:0.26458332px;stroke-linecap:butt;stroke-linejoin:miter;stroke-opacity:1" />
      <path
         inkscape:connector-curvature="0"
         id="path964"
         d="m -111.72526,108.38988 15.969489,-19.276788 -24.946419,1.41741 z"
         style="fill:#ff6347;fill-opacity:1;stroke:none;stroke-width:0.26458332px;stroke-linecap:butt;stroke-linejoin:miter;stroke-opacity:1" />
      <path
         inkscape:connector-curvature="0"
         id="path966"
         d="m -95.755771,89.113092 -1.79538,-9.07143 -10.866819,-8.598956 -12.28422,19.087796 z"
         style="fill:#87ceeb;fill-opacity:1;stroke:none;stroke-width:0.26458332px;stroke-linecap:butt;stroke-linejoin:miter;stroke-opacity:1" />
      <path
         inkscape:connector-curvature="0"
         id="path968"
         d="m -97.173181,77.58482 -11.244789,-6.142114 6.99256,-6.992559 5.197169,3.401788 z"
         style="fill:#ff0000;fill-opacity:1;stroke:none;stroke-width:0.26458332px;stroke-linecap:butt;stroke-linejoin:miter;stroke-opacity:1" />
      <path
         inkscape:connector-curvature="0"
         id="path970"
         d="m -120.70219,90.530502 -1.51191,-9.732883 15.21354,-13.607143 5.57515,-2.740329 -6.99256,6.992559 z"
         style="fill:#4682b4;fill-opacity:1;stroke:none;stroke-width:0.26458332px;stroke-linecap:butt;stroke-linejoin:miter;stroke-opacity:1" />
      <path
         inkscape:connector-curvature="0"
         id="path972"
         d="m -90.039541,98.285106 4.81986,8.096774 3.02381,-1.06306 5.15231,-0.61925 7.61718,-0.30067 0.16704,-0.0334 2.07134,-5.813118 -13.22984,-0.668171 z"
         style="fill:#d2691e;fill-opacity:1;stroke:none;stroke-width:0.26458332px;stroke-linecap:butt;stroke-linejoin:miter;stroke-opacity:1" />
      <path
         inkscape:connector-curvature="0"
         id="path974"
         d="m -90.747581,70.592261 -5.30553,-5.849482 -3.87541,-0.668174 -1.496889,0.375542 5.197169,3.401788 -0.94494,9.732885 h 3.2128 z"
         style="fill:#3cb371;fill-opacity:1;stroke:none;stroke-width:0.26458332px;stroke-linecap:butt;stroke-linejoin:miter;stroke-opacity:1" />
      <path
         inkscape:connector-curvature="0"
         id="path976"
         d="m -108.28069,112.38357 -1.46998,-0.4009 -3.34087,-1.20271 -6.28083,2.80633 -2.20498,1.40316 2.80633,3.4745 2.20498,1.46999 1.60361,-0.60136 z"
         style="fill:#9acd32;fill-opacity:1;stroke:none;stroke-width:0.26458332px;stroke-linecap:butt;stroke-linejoin:miter;stroke-opacity:1" />
      <path
         inkscape:connector-curvature="0"
         id="path978"
         d="m -1.450709,114.62649 -27.781252,-10.77233 5.60889,-21.003872 35.118048,8.341675 z"
         style="fill:#deb887;fill-opacity:1;stroke:none;stroke-width:0.26458332px;stroke-linecap:butt;stroke-linejoin:miter;stroke-opacity:1" />
      <path
         inkscape:connector-curvature="0"
         id="path980"
         d="M 56.958694,97.082392 21.794828,110.84673 -1.450709,114.62649 11.494977,91.191963 Z"
         style="fill:#adff2f;fill-opacity:1;stroke:none;stroke-width:0.26458332px;stroke-linecap:butt;stroke-linejoin:miter;stroke-opacity:1" />
      <path
         inkscape:connector-curvature="0"
         id="path982"
         d="m -1.450709,114.62649 -27.781252,-10.77233 -2.45684,7.55953 29.387647,5.10268 z"
         style="fill:#d2691e;fill-opacity:1;stroke:none;stroke-width:0.26458332px;stroke-linecap:butt;stroke-linejoin:miter;stroke-opacity:1" />
      <path
         inkscape:connector-curvature="0"
         id="path984"
         d="m 7.647468,117.52851 -11.225321,6.1472 -28.110948,-12.26202 29.387647,5.10268 9.280445,-1.25965 z"
         style="fill:#4b0082;fill-opacity:1;stroke:none;stroke-width:0.26458332px;stroke-linecap:butt;stroke-linejoin:miter;stroke-opacity:1" />
      <path
         sodipodi:nodetypes="cccccccc"
         inkscape:connector-curvature="0"
         id="path986"
         d="m 19.337981,135.79315 -22.915832,-12.11744 11.225321,-6.1472 9.989619,7.49232 12.331472,2.3151 2.097163,1.54663 0.454179,1.09921 -13.465404,6.94531"
         style="fill:#3cb371;fill-opacity:1;stroke:none;stroke-width:0.26458332px;stroke-linecap:butt;stroke-linejoin:miter;stroke-opacity:1" />
      <path
         transform="matrix(-1,0,0,1,82.082029,0)"
         inkscape:original-d="m 73.610863,150.34524 5.669643,-5.10268 -2.362351,-0.94494 -2.456847,-0.85045 -2.173361,-0.94494 -2.55134,-1.79539 -1.700893,-3.40178 -0.377976,-1.32292 -5.008186,0.85045"
         inkscape:path-effect="#path-effect990"
         inkscape:connector-curvature="0"
         id="path988"
         d="m 73.610863,150.34524 c 0,0 5.669643,-5.10268 5.669643,-5.10268 0,0 -2.362351,-0.94494 -2.362351,-0.94494 0,0 -2.456847,-0.85045 -2.456847,-0.85045 0,0 -2.173361,-0.94494 -2.173361,-0.94494 0,0 -2.55134,-1.79539 -2.55134,-1.79539 0,0 -1.700893,-3.40178 -1.700893,-3.40178 0,0 -0.377976,-1.32292 -0.377976,-1.32292 0,0 -5.008186,0.85045 -5.008186,0.85045"
         style="fill:#4b0082;fill-opacity:1;stroke:none;stroke-width:0.26458332px;stroke-linecap:butt;stroke-linejoin:miter;stroke-opacity:1" />
      <path
         inkscape:connector-curvature="0"
         id="path996"
         d="m 8.471166,150.34524 -3.590772,7.55952 14.032365,0.42522 1.511906,-0.28348 1.133927,-1.65365 0.992188,-1.03943 -14.079614,-5.00818"
         style="fill:#ff6347;fill-opacity:1;stroke:none;stroke-width:0.26458332px;stroke-linecap:butt;stroke-linejoin:miter;stroke-opacity:1" />
      <path
         inkscape:connector-curvature="0"
         id="path998"
         d="M 93.610303,117.27232 56.958694,97.082392 82.837981,101.01934 88.318636,111.2247 Z"
         style="fill:#375232;fill-opacity:1;stroke:none;stroke-width:0.26458332px;stroke-linecap:butt;stroke-linejoin:miter;stroke-opacity:1" />
      <path
         inkscape:connector-curvature="0"
         id="path1000"
         d="m 97.012088,143.73065 c 1.102166,-2.86658 2.204597,-5.7329 3.307292,-8.59896 -0.0633,-2.67746 -0.12626,-5.35492 -0.18899,-8.03199 -0.472685,-1.10258 -0.945203,-2.20513 -1.417409,-3.30729 -0.441109,-0.81898 -0.882209,-1.63816 -1.322916,-2.45685 -1.2597,-1.35415 -2.520106,-2.70909 -3.779762,-4.06324 l 24.152207,16.09191 -0.33948,1.29473 -5.48081,-2.07842 -4.72477,14.36294 -1.51206,8.31526 -2.07894,3.96875 -11.906028,-7.18136 z"
         style="fill:#3089eb;fill-opacity:1;stroke:none;stroke-width:0.26458332px;stroke-linecap:butt;stroke-linejoin:miter;stroke-opacity:1" />
      <path
         inkscape:connector-curvature="0"
         id="path1002"
         d="m 124.97879,66.212761 12.6953,4.810853 6.01356,3.741772 11.35896,6.68174 -4.00904,-11.225321 -4.00905,-3.875408 -30.60236,-12.160763 7.21628,9.220798 z"
         style="fill:#404fd0;fill-opacity:1;stroke:none;stroke-width:0.26458332px;stroke-linecap:butt;stroke-linejoin:miter;stroke-opacity:1" />
      <path
         inkscape:connector-curvature="0"
         id="path1004"
         d="m 155.04661,81.447126 18.12768,25.903314 -4.22967,6.63675 -5.23553,0.16708 c 0,0 -2.38358,-6.867 -3.57498,-10.30011 -4.2836,-5.102464 -8.56772,-10.205615 -12.85119,-15.308031 -3.21288,-2.834928 -6.42586,-5.669907 -9.63839,-8.504465 -2.20494,-1.134094 -5.18272,-2.244426 -7.77369,-3.36624 -0.37767,0.294954 -0.75518,0.590248 -1.13237,0.885772 0.26101,1.428543 0.52233,2.857624 0.7839,4.286834 -1.51512,-5.213127 -3.02932,-10.423779 -4.54358,-15.635271 v 0 l 3.75968,11.348437 1.13237,-0.885772"
         style="fill:#4b0082;fill-opacity:1;stroke:none;stroke-width:0.26458332px;stroke-linecap:butt;stroke-linejoin:miter;stroke-opacity:1" />
      <path
         inkscape:connector-curvature="0"
         id="path1006"
         d="m 173.17429,107.35044 15.875,38.08111 7.55952,8.31547 11.1503,2.26786 9.26042,0.18899 3.02381,-0.18899 -5.66964,-7.74851 -15.49703,0.18898 -5.10268,-3.59077 -9.82738,-17.3869 -6.42559,-19.0878 -3.49628,-7.27604 z"
         style="fill:#3c6871;fill-opacity:1;stroke:none;stroke-width:0.26458332px;stroke-linecap:butt;stroke-linejoin:miter;stroke-opacity:1" />
      <path
         inkscape:connector-curvature="0"
         id="path1008"
         d="m 196.60881,153.74702 -2.83482,-8.88244 5.10268,3.59077 15.49703,-0.18898 5.66964,7.74851 h -12.28423 z"
         style="fill:#404fd0;fill-opacity:1;stroke:none;stroke-width:0.26458332px;stroke-linecap:butt;stroke-linejoin:miter;stroke-opacity:1" />
      <path
         inkscape:connector-curvature="0"
         id="path1010"
         d="m 224.48456,137.02158 -4.44122,18.9933 -5.66964,-7.74851 2.57921,-4.3784 1.70385,-7.58377 0.13363,-0.53454 z"
         style="fill:#3c3871;fill-opacity:1;stroke:none;stroke-width:0.26458332px;stroke-linecap:butt;stroke-linejoin:miter;stroke-opacity:1" />
      <path
         inkscape:connector-curvature="0"
         id="path1012"
         d="m 168.63858,157.90476 -7.18155,-1.98437 -4.44122,-2.83483 8.22045,-4.38674 3.40769,2.7061 2.97337,0.33409 11.09169,1.87089 -14.43256,4.6104 z"
         style="fill:#3cb371;fill-opacity:1;stroke:none;stroke-width:0.26458332px;stroke-linecap:butt;stroke-linejoin:miter;stroke-opacity:1" />
      <path
         inkscape:connector-curvature="0"
         id="path1014"
         d="m 185.04761,158.68802 -2.3386,-5.07812 -14.07044,4.29486 -0.7087,7.79576 1.65365,3.63802 0.42522,0.33073 h 2.3151 z"
         style="fill:#3089eb;fill-opacity:1;stroke:none;stroke-width:0.26458332px;stroke-linecap:butt;stroke-linejoin:miter;stroke-opacity:1" />
      <path
         transform="matrix(-1,0,0,1,82.082029,0)"
         inkscape:original-d="m -142.40253,137.02158 c 0.33925,-1.55347 0.67823,-3.10667 1.01695,-4.65961 0.71284,-1.49222 1.47025,-2.98478 2.20497,-4.47677 0.11161,-1.559 0.223,-3.1184 0.33409,-4.67721 0.13388,-0.49017 0.26753,-0.98025 0.40091,-1.46999 1.06866,-0.40091 2.13842,-0.80207 3.20723,-1.20271 0.42331,-0.0448 0.84662,-0.0894 1.26953,-0.13363 0.26735,0.46714 0.5348,0.93518 0.80181,1.40316 0.0225,1.13584 0.0448,2.31608 0.0668,3.47451 -0.0888,0.57895 -0.17792,1.1579 -0.26727,1.73725 -0.24486,0.48998 -0.48973,0.97972 -0.73499,1.46998 -0.26718,0.4009 -0.53428,0.80154 -0.80181,1.20271 -0.24492,0.49011 -0.48973,0.97973 -0.73499,1.46999 -0.26718,0.77977 -0.53428,1.5588 -0.80181,2.3386 -0.13343,0.5345 -0.17791,1.51427 -0.26727,2.2718 -0.82413,0.17798 -1.6479,0.35609 -2.47225,0.53454 -1.07411,0.23895 -2.14768,0.47799 -3.22192,0.71738 z"
         inkscape:path-effect="#path-effect1018"
         inkscape:connector-curvature="0"
         id="path1016"
         d="m -142.233,136.24482 c 0.16952,-0.77675 0.5085,-2.32995 1.04329,-3.84813 0.53478,-1.51817 1.27427,-3.01955 1.69736,-4.54503 0.4231,-1.52548 0.53449,-3.08488 0.65701,-4.10938 0.12252,-1.02451 0.25618,-1.51459 0.85731,-1.95982 0.60113,-0.44523 1.67089,-0.84639 2.41694,-1.06906 0.74605,-0.22267 1.16936,-0.26723 1.51432,-0.0558 0.34496,0.21141 0.61241,0.67945 0.75699,1.48127 0.14458,0.80183 0.16727,1.98207 0.13387,2.85073 -0.0334,0.86867 -0.12246,1.44763 -0.28951,1.98228 -0.16705,0.53466 -0.41192,1.0244 -0.66812,1.46998 -0.2562,0.44559 -0.5233,0.84623 -0.77955,1.29186 -0.25625,0.44564 -0.50106,0.93526 -0.7573,1.57027 -0.25624,0.63502 -0.52334,1.41405 -0.68895,2.07532 -0.16562,0.66127 -0.27992,1.63282 -0.73652,2.10069 -0.45661,0.46787 -1.28038,0.64598 -2.22961,0.85468 -0.94923,0.2087 -2.0228,0.44773 -2.55994,0.56733 -0.53714,0.1196 -0.53712,0.1196 -0.36759,-0.65716 z"
         style="fill:#3cb371;fill-opacity:1;stroke:none;stroke-width:0.26458332px;stroke-linecap:butt;stroke-linejoin:miter;stroke-opacity:1" />
      <path
         transform="matrix(-1,0,0,1,82.082029,0)"
         inkscape:original-d="m -138.57925,123.00754 c -0.93518,-0.57935 -1.87062,-1.15844 -2.80633,-1.73726 -0.24475,-0.13391 -0.48973,-0.26753 -0.73499,-0.4009 -0.33395,0.37851 -0.66791,0.757 -1.00226,1.1359 -0.49009,1.29249 -0.97972,2.58334 -1.46998,3.8754 -0.57896,1.31414 -1.15791,2.62789 -1.73725,3.94223 0.62404,3.83153 1.24752,7.706 1.87088,11.5594 0.11164,-0.0893 0.22299,-0.17844 0.33409,-0.26726 0.57295,-1.3612 1.14864,-2.72925 1.72256,-4.09347 1.05172,-3.20088 2.10367,-6.403 3.15511,-9.6041 0.22296,-1.4701 0.44571,-2.94023 0.66817,-4.40994 z"
         inkscape:path-effect="#path-effect1022"
         inkscape:connector-curvature="0"
         id="path1020"
         d="m -139.15827,123.45286 c -0.35635,-1.02436 -1.29179,-1.60345 -1.88201,-1.95981 -0.59022,-0.35636 -0.8352,-0.48999 -1.12473,-0.36758 -0.28953,0.12241 -0.62349,0.5009 -1.03577,1.33657 -0.41228,0.83568 -0.90192,2.12652 -1.43652,3.42962 -0.5346,1.3031 -1.11354,2.61686 -1.09303,5.19013 0.0205,2.57327 0.64749,6.44717 1.01514,8.32919 0.36765,1.88203 0.47903,1.79292 0.82098,1.06787 0.34194,-0.72505 0.91763,-2.0931 1.73044,-4.37565 0.8128,-2.28255 1.86475,-5.48467 2.50192,-7.82026 0.63718,-2.33559 0.85992,-3.80572 0.50358,-4.83008 z"
         style="fill:#4b0082;fill-opacity:1;stroke:none;stroke-width:0.26458332px;stroke-linecap:butt;stroke-linejoin:miter;stroke-opacity:1" />
      <path
         transform="matrix(-1,0,0,1,82.082029,0)"
         inkscape:original-d="m -141.92012,121.06983 c 0.11163,-0.62389 0.22299,-1.24752 0.33409,-1.87089 0.66812,-0.35645 1.33661,-0.71298 2.00452,-1.06907 0.8017,-0.17836 1.60388,-0.35663 2.40543,-0.53454 0.53459,-2.7e-4 1.06934,-2.7e-4 1.60361,0 0.71263,1.17959 1.42571,2.36061 2.13816,3.54132 -0.33384,-0.13391 -0.66791,-0.31208 -1.00226,-0.46772 -0.8241,0.17797 -1.6479,0.35609 -2.47224,0.53454 -0.60132,0.55675 -1.49938,1.49932 -2.24946,2.24939 -0.36367,-0.52753 -0.72734,-1.05441 -1.09141,-1.58122 -0.55649,-0.26751 -1.11336,-0.5348 -1.67044,-0.80181 z"
         inkscape:path-effect="#path-effect1026"
         inkscape:connector-curvature="0"
         id="path1024"
         d="m -141.58595,120.89153 c -0.22275,-0.44563 -0.11139,-1.06926 0.27835,-1.5591 0.38974,-0.48985 1.05823,-0.84637 1.79303,-1.11355 0.7348,-0.26718 1.53698,-0.44544 2.20503,-0.53449 0.66805,-0.0891 1.2028,-0.0891 1.82609,0.50083 0.6233,0.58989 1.33637,1.77091 1.53003,2.28523 0.19366,0.51432 -0.14895,0.35444 -0.72808,0.36555 -0.57913,0.0111 -1.40293,0.18922 -2.10464,0.56786 -0.70171,0.37864 -1.62204,1.29894 -2.17907,1.41031 -0.55703,0.11137 -0.9207,-0.41551 -1.38091,-0.81261 -0.4602,-0.39711 -1.01707,-0.6644 -1.23983,-1.11003 z"
         style="fill:#ffa500;fill-opacity:1;stroke:none;stroke-width:0.26458332px;stroke-linecap:butt;stroke-linejoin:miter;stroke-opacity:1" />
      <path
         transform="matrix(-1,0,0,1,82.082029,0)"
         inkscape:original-d="m -137.96131,156.01488 c 0.54041,1.45873 1.08056,2.91772 1.62044,4.37698 0.31211,0.0554 0.6239,0.1111 0.93545,0.16704 1.0241,0.12215 2.04933,0.24474 3.0736,0.3675 1.65919,-0.0225 3.31886,-0.0448 4.97789,-0.0668 2.98429,-1.20278 8.95353,-3.60814 8.95353,-3.60814 0,0 3.4745,-1.87088 3.4745,-1.87088 0,0 0.39912,-1.63354 0.39912,-1.63354 0,0 -7.43327,1.51164 -11.1503,2.26786 -2.78616,0.0444 -5.57213,0.0891 -8.35859,0.13408 -0.40068,-0.0448 -0.60095,0.0363 -0.90183,0.0549 -0.42337,-0.052 -0.84622,-0.10369 -1.26973,-0.15514 -0.33401,-2.6e-4 -0.66791,-2.6e-4 -1.00226,0 -0.25054,-0.0116 -0.50095,-0.0228 -0.75182,-0.0339"
         inkscape:path-effect="#path-effect1030"
         inkscape:connector-curvature="0"
         id="path1028"
         d="m -137.96131,156.01488 c 0.54009,1.45885 1.08024,2.91784 1.50637,3.67527 0.42612,0.75743 0.73792,0.81311 1.40575,0.90215 0.66783,0.089 1.69307,0.21163 3.03481,0.26173 1.34175,0.0501 3.00142,0.0278 5.32311,-0.58462 2.32168,-0.61246 5.30636,-1.81524 8.29087,-3.01795 0,0 3.4745,-1.87088 3.4745,-1.87088 0,0 0.39912,-1.63354 0.39912,-1.63354 -3.71677,0.75595 -7.43323,1.51184 -10.68484,1.9122 -3.25162,0.40035 -6.03759,0.44504 -7.62906,0.47946 -1.59147,0.0344 -1.79592,0.0469 -2.15807,0.0301 -0.36215,-0.0167 -0.78501,-0.0684 -1.16375,-0.0942 -0.37874,-0.0259 -0.71264,-0.0259 -1.00509,-0.0315 -0.29245,-0.006 -0.54286,-0.0169 -0.79372,-0.0283"
         style="fill:#3cb371;fill-opacity:1;stroke:none;stroke-width:0.26458332px;stroke-linecap:butt;stroke-linejoin:miter;stroke-opacity:1" />
      <path
         transform="matrix(-1,0,0,1,82.082029,0)"
         inkscape:original-d="m -106.96726,145.43155 c 0.86644,2.83721 1.73262,5.67469 2.59853,8.51243 0.0225,1.09115 0.0448,2.18243 0.0668,3.27405"
         inkscape:path-effect="#path-effect1034"
         inkscape:connector-curvature="0"
         id="path1032"
         d="m -106.96726,145.43155 c 0.86612,2.83731 1.7323,5.67479 2.17655,7.63919 0.44424,1.96439 0.46651,3.05568 0.48878,4.14729"
         style="fill:#cccccc;stroke:none;stroke-width:0.26458332px;stroke-linecap:butt;stroke-linejoin:miter;stroke-opacity:1" />
      <path
         inkscape:original-d="m 22.55078,155.35342 c 3.444647,-6.42586 6.889029,-12.85146 10.333147,-19.27678 0.197451,-0.2919 0.394653,-0.60583 0.591582,-0.90834 0.133763,-0.38964 0.267533,-0.7798 0.400904,-1.16931 -0.08875,-0.35633 -0.177916,-0.73525 -0.267271,-1.10248 -0.11104,-0.53453 -0.222459,-1.06934 -0.334087,-1.60362 -0.150018,-0.38432 -0.300413,-0.76866 -0.451016,-1.1526 -0.03591,-0.0726 -0.07212,-0.14503 -0.108577,-0.21716 -4.406017,2.24319 -8.8252,4.49321 -13.238195,6.74021 -0.08048,0.0359 -0.161211,0.0721 -0.242213,0.10858 -3.601878,4.54205 -7.175661,9.04861 -10.7638882,13.57332 0.058046,0.0189 0.1158198,0.038 0.1733328,0.0574 4.1196124,1.48445 8.2617574,2.97739 12.3922384,4.46648 0.504927,0.16116 1.009626,0.32259 1.514043,0.48428 z"
         inkscape:path-effect="#path-effect1360"
         inkscape:connector-curvature="0"
         id="path1358"
         d="m 24.273056,152.14046 c 1.722276,-3.21295 5.166661,-9.63855 6.984914,-12.99881 1.818252,-3.36027 2.020547,-3.67088 2.185847,-4.01696 0.1653,-0.34608 0.299069,-0.73624 0.322575,-1.10941 0.02351,-0.37316 -0.06821,-0.75146 -0.168401,-1.20235 -0.100196,-0.45089 -0.211615,-0.9857 -0.342444,-1.44497 -0.130829,-0.45927 -0.281222,-0.84361 -0.374476,-1.07186 -0.09325,-0.22825 -0.129466,-0.30068 -2.35052,0.78482 -2.221054,1.0855 -6.640237,3.33552 -8.886967,4.477 -2.246731,1.14147 -2.327465,1.17766 -4.168952,3.46684 -1.841487,2.28919 -5.41527,6.79575 -7.180393,9.06771 -1.7651234,2.27196 -1.7073591,2.29109 0.381198,3.04302 2.088558,0.75192 6.230705,2.24486 8.548416,3.06998 2.317711,0.82512 2.822409,0.98656 3.074668,1.06724 0.252259,0.0807 0.252259,0.0807 1.974535,-3.13225 z"
         style="fill:#6444ec;fill-opacity:1;stroke:none;stroke-width:0.26458332px;stroke-linecap:butt;stroke-linejoin:miter;stroke-opacity:1" />
    </g>
  </g>
</svg>
